# xmcd
#
# Track frame offsets: 
#        150
#        2525
#        14252
#        25690
#        41799
#        59891
#        81639
#        100022
#        113376
#        132787
#        149332
#        166495
#        187036
#        206639
#
# Disc length: 3044 seconds
#
# Revision: 7
# Processed by: cddbd v1.5.2PL0 Copyright (c) Steve Scherf et al.
# Submitted via: ExactAudioCopy v1.3
#
DISCID=bd0be20e
DTITLE=Raphael Saadiq - Ray Ray
DYEAR=2004
DGENRE=Rock
TTITLE0=Blaxploitation
TTITLE1=Ray Ray Theme [with Joi]
TTITLE2=I Know Shuggie Otis
TTITLE3=This One
TTITLE4=Chic Like You [with Allie Baba]
TTITLE5=Live without You
TTITLE6=Detroit Girl
TTITLE7=Not a Game [with Babyface]
TTITLE8=Rifle Love [with Tony!  Toni!  Toné!  and Lucy Pearl]
TTITLE9=Chic [with Teedra Moses]
TTITLE10=I Want You Back [with Teedra Moses]
TTITLE11=I Love Her
TTITLE12=Grown Folks
TTITLE13=Save Us
EXTD=
EXTT0=
EXTT1=
EXTT2=
EXTT3=
EXTT4=
EXTT5=
EXTT6=
EXTT7=
EXTT8=
EXTT9=
EXTT10=
EXTT11=
EXTT12=
EXTT13=
PLAYORDER=
